<?xml version="1.0" encoding="utf-8"?>
<!-- Generator: Adobe Illustrator 15.1.0, SVG Export Plug-In . SVG Version: 6.00 Build 0)  -->
<svg version="1.2" baseProfile="tiny" id="Layer_1" xmlns="http://www.w3.org/2000/svg" xmlns:xlink="http://www.w3.org/1999/xlink"
	 x="0px" y="0px" width="160px" height="40px" viewBox="0 0 160 40" overflow="inherit" xml:space="preserve">
<g>
	<path fill="#FFDD33" d="M10.42,22.54c0-0.83,0.16-1.65,0.49-2.45c0.33-0.8,0.8-1.52,1.42-2.15c0.62-0.63,1.37-1.14,2.27-1.54
		c0.9-0.39,1.92-0.59,3.07-0.59c1.36,0,2.54,0.27,3.53,0.8c0.99,0.54,1.72,1.25,2.18,2.15l-2.64,1.87c-0.16-0.34-0.36-0.62-0.6-0.85
		c-0.24-0.23-0.5-0.41-0.79-0.54c-0.29-0.13-0.58-0.22-0.89-0.28c-0.3-0.06-0.59-0.08-0.86-0.08c-0.62,0-1.17,0.11-1.63,0.34
		s-0.84,0.51-1.14,0.86c-0.3,0.35-0.52,0.75-0.67,1.2c-0.15,0.45-0.23,0.9-0.23,1.34c0,0.51,0.09,1,0.26,1.45
		c0.18,0.46,0.42,0.86,0.74,1.21c0.32,0.35,0.71,0.63,1.16,0.84s0.97,0.31,1.55,0.31c0.29,0,0.58-0.03,0.89-0.1
		c0.3-0.06,0.6-0.16,0.88-0.3c0.28-0.14,0.54-0.32,0.77-0.54c0.23-0.22,0.42-0.5,0.56-0.82l2.83,1.68
		c-0.22,0.51-0.55,0.96-0.98,1.34c-0.43,0.38-0.92,0.71-1.48,0.98c-0.55,0.27-1.14,0.48-1.75,0.61s-1.22,0.2-1.81,0.2
		c-1.06,0-2.02-0.2-2.89-0.6c-0.87-0.4-1.62-0.93-2.24-1.6s-1.11-1.41-1.46-2.24C10.6,24.26,10.42,23.41,10.42,22.54z"/>
	<path fill="#FFDD33" d="M31.88,29.53c-1.07,0-2.05-0.2-2.93-0.59c-0.88-0.39-1.64-0.91-2.27-1.55c-0.63-0.64-1.12-1.38-1.46-2.21
		c-0.34-0.83-0.52-1.68-0.52-2.54c0-0.9,0.18-1.76,0.54-2.58s0.86-1.55,1.5-2.17c0.64-0.62,1.4-1.12,2.29-1.5
		c0.89-0.38,1.85-0.56,2.89-0.56c1.07,0,2.05,0.2,2.93,0.59c0.88,0.39,1.63,0.91,2.26,1.56s1.11,1.38,1.45,2.21
		c0.34,0.82,0.52,1.67,0.52,2.53c0,0.88-0.18,1.73-0.54,2.56c-0.36,0.82-0.86,1.55-1.49,2.18c-0.63,0.63-1.39,1.14-2.27,1.51
		C33.9,29.34,32.93,29.53,31.88,29.53z M28.21,22.66c0,0.48,0.08,0.95,0.24,1.4c0.16,0.46,0.4,0.86,0.71,1.21
		c0.31,0.35,0.7,0.64,1.15,0.85c0.46,0.22,0.99,0.32,1.6,0.32c0.61,0,1.14-0.11,1.61-0.34c0.46-0.22,0.85-0.52,1.15-0.88
		c0.3-0.36,0.53-0.77,0.68-1.22c0.15-0.46,0.23-0.92,0.23-1.38c0-0.48-0.08-0.95-0.25-1.4s-0.41-0.86-0.72-1.2
		c-0.31-0.34-0.7-0.62-1.15-0.83c-0.46-0.21-0.98-0.31-1.57-0.31c-0.61,0-1.14,0.11-1.6,0.32c-0.46,0.22-0.84,0.5-1.15,0.85
		c-0.31,0.35-0.54,0.76-0.7,1.21S28.21,22.2,28.21,22.66z"/>
	<path fill="#FFDD33" d="M44.67,22.28v7.13h-3.46V15.9h2.71L51,23.24V15.9h3.43v13.51h-2.76L44.67,22.28z"/>
	<path fill="#FFFFFF" d="M61.56,29.65c-1.94,0-3.52-0.67-4.75-2.02l0.36-0.31c0.64,0.62,1.31,1.09,2,1.39
		c0.7,0.3,1.49,0.46,2.39,0.46c1.23,0,2.23-0.26,3-0.79c0.77-0.53,1.15-1.27,1.15-2.23c0-0.45-0.1-0.82-0.29-1.12
		s-0.47-0.55-0.84-0.77c-0.37-0.22-0.82-0.4-1.37-0.55c-0.54-0.15-1.16-0.31-1.85-0.47c-0.67-0.16-1.26-0.31-1.75-0.44
		c-0.5-0.14-0.91-0.31-1.24-0.52c-0.33-0.21-0.58-0.47-0.74-0.78c-0.17-0.31-0.25-0.72-0.25-1.21c0-0.62,0.12-1.16,0.36-1.6
		c0.24-0.44,0.56-0.8,0.96-1.09c0.4-0.29,0.86-0.5,1.39-0.64c0.53-0.14,1.09-0.2,1.68-0.2c1.01,0,1.87,0.17,2.58,0.52
		c0.71,0.34,1.2,0.77,1.48,1.28l-0.43,0.19c-0.3-0.5-0.8-0.87-1.49-1.13c-0.69-0.26-1.43-0.38-2.23-0.38c-0.51,0-1,0.06-1.46,0.17
		c-0.46,0.11-0.87,0.29-1.22,0.53c-0.35,0.24-0.63,0.55-0.83,0.92c-0.2,0.38-0.3,0.83-0.3,1.36c0,0.42,0.07,0.76,0.2,1.02
		c0.14,0.26,0.35,0.48,0.64,0.66c0.29,0.18,0.66,0.33,1.1,0.46c0.45,0.13,0.98,0.26,1.58,0.41c0.74,0.18,1.4,0.34,2,0.5
		s1.1,0.36,1.51,0.6c0.41,0.24,0.72,0.53,0.95,0.88c0.22,0.34,0.34,0.79,0.34,1.33s-0.11,1.04-0.34,1.48
		c-0.22,0.44-0.54,0.82-0.94,1.13c-0.4,0.31-0.89,0.55-1.46,0.72C62.88,29.56,62.25,29.65,61.56,29.65z"/>
	<path fill="#FFFFFF" d="M74.14,28.83c-0.24,0.16-0.46,0.28-0.66,0.36c-0.2,0.08-0.44,0.16-0.71,0.23
		c-0.27,0.07-0.58,0.11-0.91,0.11c-0.58,0-1.08-0.18-1.51-0.53c-0.43-0.35-0.65-0.82-0.65-1.39V17.43h-1.8v-0.48h1.8v-4.34h0.48
		v4.34h3v0.48h-3v10.18c0,0.46,0.18,0.82,0.53,1.07c0.35,0.25,0.74,0.37,1.15,0.37c0.27,0,0.53-0.03,0.77-0.08
		c0.24-0.06,0.45-0.12,0.64-0.19c0.18-0.07,0.33-0.14,0.43-0.2c0.1-0.06,0.16-0.1,0.18-0.12L74.14,28.83z"/>
	<path fill="#FFFFFF" d="M81.12,29.65c-0.82,0-1.59-0.17-2.32-0.52c-0.73-0.34-1.36-0.82-1.91-1.42c-0.54-0.6-0.98-1.3-1.3-2.09
		c-0.32-0.79-0.48-1.64-0.48-2.53c0-0.88,0.15-1.7,0.46-2.47c0.3-0.77,0.72-1.44,1.26-2.02c0.54-0.58,1.16-1.03,1.87-1.36
		s1.48-0.49,2.29-0.49c0.83,0,1.61,0.17,2.34,0.5c0.73,0.34,1.36,0.79,1.9,1.37c0.54,0.58,0.96,1.26,1.28,2.04
		c0.32,0.78,0.48,1.62,0.48,2.52v0.26H75.6c0.06,0.8,0.25,1.55,0.56,2.24s0.72,1.3,1.21,1.81c0.5,0.51,1.07,0.92,1.72,1.21
		s1.33,0.44,2.05,0.44c0.48,0,0.95-0.06,1.4-0.19c0.46-0.13,0.88-0.31,1.28-0.54c0.4-0.23,0.75-0.51,1.06-0.83
		c0.3-0.32,0.54-0.67,0.72-1.06l0.46,0.12c-0.18,0.43-0.43,0.83-0.76,1.19c-0.33,0.36-0.71,0.67-1.15,0.94
		c-0.44,0.26-0.92,0.47-1.44,0.62C82.2,29.57,81.67,29.65,81.12,29.65z M86.5,22.98c-0.05-0.83-0.22-1.6-0.53-2.3
		c-0.3-0.7-0.7-1.31-1.19-1.81s-1.05-0.9-1.69-1.19c-0.64-0.29-1.33-0.43-2.06-0.43c-0.74,0-1.42,0.14-2.06,0.43
		c-0.64,0.29-1.2,0.69-1.69,1.2c-0.49,0.51-0.88,1.12-1.16,1.82c-0.29,0.7-0.46,1.46-0.5,2.28H86.5z"/>
	<path fill="#FFFFFF" d="M89.98,11.89h0.48v15.67c0,0.46,0.14,0.83,0.43,1.1c0.29,0.27,0.67,0.41,1.15,0.41
		c0.18,0,0.39-0.02,0.64-0.06c0.25-0.04,0.48-0.09,0.68-0.16l0.17,0.38c-0.22,0.08-0.5,0.15-0.83,0.2s-0.6,0.08-0.83,0.08
		c-0.56,0-1.02-0.18-1.37-0.54c-0.35-0.36-0.53-0.84-0.53-1.43V11.89z"/>
	<path fill="#FFFFFF" d="M95.38,11.89h0.48v15.67c0,0.46,0.14,0.83,0.43,1.1c0.29,0.27,0.67,0.41,1.15,0.41
		c0.18,0,0.39-0.02,0.64-0.06c0.25-0.04,0.48-0.09,0.68-0.16l0.17,0.38c-0.22,0.08-0.5,0.15-0.83,0.2s-0.6,0.08-0.83,0.08
		c-0.56,0-1.02-0.18-1.37-0.54c-0.35-0.36-0.53-0.84-0.53-1.43V11.89z"/>
	<path fill="#FFFFFF" d="M103.61,29.65c-0.56,0-1.09-0.1-1.58-0.3c-0.5-0.2-0.92-0.47-1.28-0.82c-0.36-0.34-0.64-0.75-0.85-1.21
		s-0.31-0.96-0.31-1.49c0-0.53,0.12-1.01,0.37-1.44c0.25-0.43,0.6-0.8,1.06-1.12c0.46-0.31,1-0.56,1.63-0.73
		c0.63-0.18,1.32-0.26,2.08-0.26c0.72,0,1.45,0.06,2.18,0.18c0.74,0.12,1.4,0.29,1.99,0.52v-1.42c0-0.64-0.1-1.23-0.29-1.76
		c-0.19-0.54-0.47-0.99-0.83-1.37c-0.36-0.38-0.79-0.67-1.3-0.88c-0.5-0.21-1.06-0.31-1.67-0.31c-0.61,0-1.26,0.13-1.94,0.4
		c-0.69,0.26-1.38,0.64-2.09,1.14l-0.29-0.38c1.6-1.09,3.04-1.63,4.32-1.63c0.69,0,1.32,0.11,1.88,0.34
		c0.57,0.22,1.05,0.54,1.44,0.96c0.39,0.42,0.7,0.92,0.91,1.51s0.32,1.26,0.32,1.99v6.89c0,0.32,0.13,0.48,0.38,0.48v0.48
		c-0.18,0-0.29-0.02-0.34-0.05c-0.16-0.06-0.29-0.18-0.38-0.35c-0.1-0.17-0.14-0.36-0.14-0.56v-1.15c-0.58,0.75-1.33,1.33-2.26,1.74
		S104.7,29.65,103.61,29.65z M103.61,29.17c1.07,0,2.05-0.2,2.94-0.6c0.89-0.4,1.55-0.94,1.98-1.61c0.24-0.34,0.36-0.66,0.36-0.98
		V23.5c-1.28-0.5-2.67-0.74-4.18-0.74c-0.7,0-1.34,0.07-1.91,0.22c-0.57,0.14-1.06,0.35-1.46,0.62c-0.41,0.27-0.72,0.6-0.95,0.97
		c-0.22,0.38-0.34,0.8-0.34,1.26c0,0.46,0.09,0.9,0.28,1.31c0.18,0.41,0.44,0.76,0.76,1.07c0.32,0.3,0.7,0.54,1.13,0.71
		C102.65,29.08,103.12,29.17,103.61,29.17z"/>
	<path fill="#FFFFFF" d="M118.04,28.83c-0.24,0.16-0.46,0.28-0.66,0.36s-0.44,0.16-0.71,0.23c-0.27,0.07-0.58,0.11-0.91,0.11
		c-0.58,0-1.08-0.18-1.51-0.53c-0.43-0.35-0.65-0.82-0.65-1.39V17.43h-1.8v-0.48h1.8v-4.34h0.48v4.34h3v0.48h-3v10.18
		c0,0.46,0.18,0.82,0.53,1.07c0.35,0.25,0.74,0.37,1.15,0.37c0.27,0,0.53-0.03,0.77-0.08c0.24-0.06,0.45-0.12,0.64-0.19
		c0.18-0.07,0.33-0.14,0.43-0.2c0.1-0.06,0.16-0.1,0.18-0.12L118.04,28.83z"/>
	<path fill="#FFFFFF" d="M120.2,13.74v-1.85h0.48v1.85H120.2z M120.2,29.41V16.95h0.48v12.46H120.2z"/>
	<path fill="#FFFFFF" d="M129.72,29.65c-0.82,0-1.58-0.17-2.3-0.52c-0.72-0.34-1.35-0.81-1.88-1.39s-0.96-1.27-1.27-2.05
		c-0.31-0.78-0.47-1.61-0.47-2.47c0-0.88,0.16-1.71,0.47-2.48c0.31-0.78,0.74-1.46,1.28-2.05c0.54-0.59,1.18-1.06,1.9-1.4
		c0.72-0.34,1.48-0.52,2.28-0.52s1.56,0.17,2.28,0.52s1.35,0.81,1.88,1.4c0.54,0.59,0.96,1.28,1.28,2.05s0.48,1.6,0.48,2.48
		c0,0.86-0.16,1.69-0.47,2.47c-0.31,0.78-0.74,1.47-1.27,2.05s-1.16,1.05-1.88,1.39C131.31,29.48,130.54,29.65,129.72,29.65z
		 M124.28,23.26c0,0.8,0.14,1.56,0.43,2.28c0.29,0.72,0.68,1.35,1.16,1.88c0.49,0.54,1.06,0.96,1.72,1.27s1.36,0.47,2.11,0.47
		c0.74,0,1.44-0.16,2.1-0.48s1.25-0.75,1.75-1.3s0.9-1.18,1.19-1.9s0.43-1.49,0.43-2.3c0-0.8-0.14-1.56-0.43-2.28
		s-0.68-1.35-1.18-1.9c-0.5-0.54-1.08-0.98-1.74-1.3c-0.66-0.32-1.36-0.48-2.1-0.48c-0.74,0-1.44,0.16-2.1,0.48
		c-0.66,0.32-1.24,0.76-1.74,1.31c-0.5,0.55-0.89,1.19-1.18,1.92C124.42,21.68,124.28,22.45,124.28,23.26z"/>
	<path fill="#FFFFFF" d="M148.44,29.41h-0.48v-6.94c0-1.82-0.25-3.15-0.76-3.98s-1.32-1.25-2.44-1.25c-0.61,0-1.2,0.11-1.79,0.32
		c-0.58,0.22-1.12,0.52-1.62,0.9c-0.5,0.38-0.93,0.84-1.3,1.37s-0.64,1.1-0.82,1.7v7.87h-0.48V16.95h0.48v3.22
		c0.26-0.5,0.58-0.96,0.98-1.38c0.4-0.42,0.84-0.78,1.32-1.08c0.48-0.3,0.99-0.53,1.54-0.7s1.1-0.25,1.66-0.25
		c1.28,0,2.22,0.46,2.81,1.38c0.59,0.92,0.89,2.36,0.89,4.33V29.41z"/>
</g>
<polygon fill="#FFDD33" points="120.4,7.87 121.64,10.39 124.42,10.79 122.41,12.75 122.88,15.52 120.4,14.21 117.92,15.52 
	118.39,12.75 116.38,10.79 119.16,10.39 "/>
</svg>
