<?xml version="1.0" encoding="utf-8"?>
<!-- Generator: Adobe Illustrator 15.1.0, SVG Export Plug-In . SVG Version: 6.00 Build 0)  -->
<svg version="1.2" baseProfile="tiny" id="Layer_1" xmlns="http://www.w3.org/2000/svg" xmlns:xlink="http://www.w3.org/1999/xlink"
	 x="0px" y="0px" width="160px" height="40px" viewBox="0 0 160 40" overflow="inherit" xml:space="preserve">
<g>
	<path fill="#FFDD33" d="M11.576,23.096c0-0.864,0.152-1.692,0.456-2.484c0.304-0.792,0.744-1.488,1.32-2.088
		c0.576-0.6,1.284-1.076,2.124-1.428c0.84-0.352,1.796-0.528,2.868-0.528c1.456,0,2.68,0.308,3.672,0.924
		c0.992,0.616,1.736,1.42,2.232,2.412l-3.744,1.128c-0.496-0.8-1.224-1.2-2.184-1.2c-0.8,0-1.468,0.297-2.004,0.888
		c-0.536,0.593-0.804,1.385-0.804,2.377c0,0.496,0.072,0.947,0.216,1.355s0.344,0.756,0.6,1.044c0.256,0.288,0.556,0.513,0.9,0.672
		c0.344,0.16,0.708,0.24,1.092,0.24c0.48,0,0.92-0.116,1.32-0.348c0.399-0.232,0.696-0.532,0.888-0.9l3.744,1.152
		c-0.464,0.976-1.204,1.775-2.22,2.399s-2.252,0.937-3.708,0.937c-1.056,0-2.004-0.181-2.844-0.54c-0.84-0.36-1.552-0.84-2.136-1.44
		c-0.584-0.6-1.028-1.296-1.332-2.088C11.728,24.787,11.576,23.959,11.576,23.096z"/>
	<path fill="#FFDD33" d="M31.879,29.647c-1.072,0-2.028-0.177-2.868-0.528c-0.84-0.352-1.548-0.828-2.124-1.428
		c-0.576-0.601-1.012-1.296-1.308-2.088c-0.296-0.792-0.444-1.62-0.444-2.484s0.147-1.692,0.444-2.484
		c0.296-0.792,0.732-1.487,1.308-2.087c0.576-0.6,1.284-1.08,2.124-1.44c0.84-0.36,1.796-0.54,2.868-0.54s2.024,0.18,2.856,0.54
		c0.832,0.36,1.536,0.84,2.112,1.44c0.576,0.6,1.016,1.295,1.32,2.087c0.304,0.792,0.456,1.62,0.456,2.484s-0.148,1.692-0.444,2.484
		c-0.296,0.792-0.732,1.487-1.308,2.088c-0.576,0.6-1.284,1.076-2.124,1.428S32.951,29.647,31.879,29.647z M29.072,23.119
		c0,0.992,0.264,1.788,0.792,2.388c0.528,0.601,1.2,0.9,2.016,0.9c0.4,0,0.768-0.08,1.104-0.24c0.336-0.159,0.628-0.384,0.876-0.672
		s0.444-0.636,0.588-1.044s0.216-0.852,0.216-1.332c0-0.992-0.264-1.788-0.792-2.388c-0.528-0.601-1.192-0.9-1.992-0.9
		c-0.4,0-0.772,0.08-1.116,0.24c-0.344,0.16-0.64,0.384-0.888,0.672s-0.444,0.636-0.588,1.044S29.072,22.64,29.072,23.119z"/>
	<path fill="#FFDD33" d="M52.639,29.407h-3.84v-7.08c0-0.832-0.156-1.436-0.468-1.812c-0.312-0.376-0.724-0.564-1.236-0.564
		c-0.272,0-0.548,0.057-0.828,0.168c-0.28,0.112-0.544,0.269-0.792,0.468c-0.248,0.2-0.476,0.437-0.684,0.708
		c-0.208,0.272-0.369,0.568-0.48,0.889v7.224h-3.84v-12.6h3.456v2.112c0.464-0.752,1.12-1.332,1.968-1.74
		c0.848-0.408,1.824-0.612,2.928-0.612c0.816,0,1.476,0.148,1.98,0.444c0.504,0.296,0.892,0.68,1.164,1.152
		c0.272,0.472,0.452,0.988,0.54,1.548c0.088,0.561,0.132,1.104,0.132,1.632V29.407z"/>
	<path fill="#FFFFFF" d="M59.479,29.647c-1.936,0-3.52-0.672-4.752-2.017l0.36-0.312c0.64,0.624,1.308,1.088,2.004,1.392
		c0.696,0.305,1.492,0.456,2.388,0.456c1.232,0,2.232-0.264,3-0.792c0.768-0.527,1.152-1.271,1.152-2.231
		c0-0.448-0.096-0.82-0.288-1.116s-0.472-0.552-0.84-0.769c-0.368-0.216-0.824-0.399-1.368-0.552
		c-0.544-0.151-1.16-0.308-1.848-0.468c-0.672-0.16-1.256-0.308-1.752-0.444c-0.496-0.136-0.908-0.308-1.236-0.516
		c-0.328-0.208-0.576-0.468-0.744-0.78c-0.168-0.312-0.252-0.716-0.252-1.212c0-0.624,0.12-1.156,0.36-1.596
		c0.24-0.44,0.56-0.804,0.96-1.092c0.399-0.288,0.864-0.5,1.392-0.636c0.528-0.136,1.088-0.204,1.68-0.204
		c1.008,0,1.868,0.172,2.58,0.516c0.712,0.344,1.204,0.772,1.476,1.284l-0.432,0.192c-0.304-0.496-0.8-0.872-1.488-1.128
		c-0.688-0.255-1.432-0.384-2.232-0.384c-0.512,0-1,0.056-1.464,0.168c-0.464,0.112-0.872,0.288-1.224,0.528
		c-0.352,0.24-0.628,0.548-0.828,0.924c-0.2,0.376-0.3,0.828-0.3,1.355c0,0.417,0.068,0.757,0.204,1.021
		c0.136,0.264,0.348,0.484,0.636,0.66c0.288,0.176,0.656,0.328,1.104,0.456c0.448,0.128,0.976,0.264,1.584,0.407
		c0.735,0.177,1.404,0.345,2.004,0.505s1.104,0.359,1.512,0.6c0.408,0.24,0.724,0.532,0.948,0.876
		c0.224,0.344,0.336,0.788,0.336,1.332s-0.112,1.036-0.336,1.476c-0.224,0.44-0.536,0.816-0.936,1.128
		c-0.4,0.312-0.888,0.553-1.464,0.721C60.799,29.563,60.167,29.647,59.479,29.647z"/>
	<path fill="#FFFFFF" d="M72.055,28.831c-0.24,0.16-0.46,0.28-0.66,0.36c-0.2,0.08-0.436,0.156-0.708,0.228
		c-0.272,0.072-0.576,0.108-0.912,0.108c-0.576,0-1.08-0.176-1.512-0.528c-0.432-0.352-0.648-0.815-0.648-1.392V17.431h-1.8v-0.48
		h1.8v-4.344h0.48v4.344h3v0.48h-3v10.176c0,0.464,0.176,0.82,0.528,1.067c0.352,0.249,0.736,0.372,1.152,0.372
		c0.272,0,0.528-0.027,0.768-0.084c0.24-0.056,0.452-0.12,0.636-0.191c0.184-0.072,0.328-0.14,0.432-0.204
		c0.104-0.063,0.164-0.104,0.18-0.12L72.055,28.831z"/>
	<path fill="#FFFFFF" d="M79.04,29.647c-0.816,0-1.588-0.172-2.316-0.517c-0.728-0.344-1.364-0.815-1.908-1.416
		c-0.544-0.6-0.976-1.296-1.296-2.088c-0.32-0.792-0.48-1.636-0.48-2.531c0-0.88,0.152-1.704,0.456-2.473
		c0.304-0.768,0.724-1.439,1.26-2.016c0.536-0.576,1.16-1.028,1.872-1.356s1.476-0.492,2.292-0.492c0.832,0,1.612,0.168,2.34,0.504
		c0.728,0.336,1.359,0.792,1.896,1.368c0.535,0.576,0.963,1.256,1.283,2.04c0.32,0.784,0.48,1.624,0.48,2.521v0.264h-11.4
		c0.064,0.801,0.252,1.548,0.564,2.244s0.716,1.3,1.212,1.812c0.496,0.513,1.068,0.917,1.716,1.213s1.332,0.443,2.052,0.443
		c0.48,0,0.948-0.063,1.404-0.191s0.884-0.309,1.284-0.54c0.399-0.232,0.752-0.508,1.056-0.828s0.544-0.672,0.72-1.057l0.456,0.12
		c-0.177,0.433-0.429,0.828-0.756,1.188c-0.328,0.359-0.712,0.672-1.151,0.936c-0.441,0.265-0.921,0.473-1.44,0.624
		C80.116,29.571,79.583,29.647,79.04,29.647z M84.416,22.976c-0.049-0.832-0.225-1.601-0.528-2.305
		c-0.304-0.703-0.7-1.308-1.188-1.812s-1.052-0.9-1.691-1.188c-0.64-0.288-1.329-0.432-2.064-0.432
		c-0.736,0-1.424,0.144-2.064,0.432c-0.64,0.288-1.204,0.688-1.692,1.2c-0.488,0.512-0.876,1.12-1.164,1.824
		c-0.288,0.704-0.456,1.464-0.504,2.28H84.416z"/>
	<path fill="#FFFFFF" d="M87.896,11.887h0.479V27.56c0,0.464,0.145,0.832,0.433,1.104c0.287,0.272,0.672,0.408,1.151,0.408
		c0.176,0,0.388-0.02,0.636-0.061c0.248-0.039,0.477-0.092,0.685-0.155l0.168,0.384c-0.225,0.08-0.5,0.148-0.828,0.204
		s-0.604,0.084-0.828,0.084c-0.561,0-1.016-0.18-1.368-0.54c-0.352-0.36-0.527-0.836-0.527-1.428V11.887z"/>
	<path fill="#FFFFFF" d="M93.295,11.887h0.479V27.56c0,0.464,0.145,0.832,0.433,1.104c0.287,0.272,0.672,0.408,1.151,0.408
		c0.176,0,0.388-0.02,0.636-0.061c0.248-0.039,0.477-0.092,0.685-0.155l0.168,0.384c-0.225,0.08-0.5,0.148-0.828,0.204
		s-0.604,0.084-0.828,0.084c-0.561,0-1.016-0.18-1.368-0.54c-0.352-0.36-0.527-0.836-0.527-1.428V11.887z"/>
	<path fill="#FFFFFF" d="M101.526,29.647c-0.561,0-1.089-0.101-1.584-0.3c-0.496-0.2-0.925-0.473-1.284-0.816
		c-0.36-0.344-0.645-0.748-0.853-1.212s-0.312-0.96-0.312-1.488c0-0.527,0.124-1.008,0.372-1.439c0.248-0.433,0.6-0.805,1.056-1.116
		c0.456-0.312,1-0.556,1.632-0.732c0.632-0.176,1.324-0.264,2.076-0.264c0.72,0,1.448,0.06,2.185,0.18
		c0.735,0.12,1.399,0.292,1.991,0.517V21.56c0-0.64-0.096-1.229-0.288-1.765c-0.191-0.535-0.468-0.992-0.827-1.368
		c-0.36-0.376-0.792-0.668-1.297-0.876c-0.504-0.208-1.06-0.312-1.668-0.312c-0.607,0-1.256,0.132-1.943,0.396
		c-0.688,0.264-1.385,0.644-2.088,1.14l-0.288-0.384c1.6-1.088,3.039-1.632,4.319-1.632c0.688,0,1.316,0.112,1.885,0.336
		c0.567,0.224,1.048,0.544,1.439,0.96c0.393,0.417,0.696,0.92,0.912,1.512s0.324,1.256,0.324,1.992v6.888
		c0,0.32,0.128,0.479,0.384,0.479v0.48c-0.176,0-0.288-0.016-0.336-0.048c-0.16-0.063-0.288-0.18-0.384-0.349
		c-0.096-0.168-0.145-0.355-0.145-0.563v-1.152c-0.575,0.753-1.328,1.332-2.256,1.74S102.614,29.647,101.526,29.647z
		 M101.526,29.167c1.071,0,2.052-0.199,2.939-0.6c0.889-0.4,1.548-0.937,1.98-1.608c0.239-0.336,0.359-0.663,0.359-0.983v-2.473
		c-1.28-0.495-2.672-0.744-4.176-0.744c-0.704,0-1.34,0.072-1.908,0.217c-0.567,0.144-1.056,0.352-1.464,0.624
		c-0.408,0.271-0.724,0.596-0.948,0.972c-0.224,0.376-0.336,0.796-0.336,1.26c0,0.465,0.092,0.9,0.276,1.309
		c0.184,0.407,0.436,0.764,0.756,1.067c0.32,0.305,0.696,0.54,1.128,0.708C100.566,29.083,101.03,29.167,101.526,29.167z"/>
	<path fill="#FFFFFF" d="M115.949,28.831c-0.24,0.16-0.46,0.28-0.66,0.36s-0.437,0.156-0.708,0.228
		c-0.272,0.072-0.576,0.108-0.912,0.108c-0.576,0-1.08-0.176-1.512-0.528c-0.432-0.352-0.648-0.815-0.648-1.392V17.431h-1.8v-0.48
		h1.8v-4.344h0.48v4.344h3v0.48h-3v10.176c0,0.464,0.176,0.82,0.528,1.067c0.352,0.249,0.735,0.372,1.151,0.372
		c0.272,0,0.528-0.027,0.769-0.084c0.239-0.056,0.451-0.12,0.636-0.191c0.184-0.072,0.327-0.14,0.432-0.204
		c0.104-0.063,0.164-0.104,0.181-0.12L115.949,28.831z"/>
	<path fill="#FFFFFF" d="M118.109,13.735v-1.848h0.479v1.848H118.109z M118.109,29.407V16.951h0.479v12.456H118.109z"/>
	<path fill="#FFFFFF" d="M127.638,29.647c-0.815,0-1.584-0.172-2.304-0.517c-0.72-0.344-1.348-0.808-1.884-1.392
		s-0.96-1.268-1.272-2.052c-0.312-0.784-0.468-1.608-0.468-2.473c0-0.879,0.156-1.707,0.468-2.483
		c0.312-0.776,0.74-1.46,1.284-2.052c0.544-0.592,1.176-1.06,1.896-1.404c0.72-0.344,1.479-0.516,2.279-0.516
		s1.561,0.172,2.28,0.516s1.348,0.812,1.884,1.404c0.536,0.592,0.964,1.276,1.284,2.052s0.48,1.604,0.48,2.483
		c0,0.864-0.156,1.688-0.469,2.473c-0.312,0.784-0.735,1.468-1.271,2.052s-1.164,1.048-1.884,1.392
		C129.222,29.476,128.454,29.647,127.638,29.647z M122.19,23.264c0,0.8,0.144,1.56,0.432,2.279c0.288,0.721,0.676,1.349,1.164,1.884
		c0.487,0.537,1.06,0.961,1.716,1.272s1.359,0.468,2.112,0.468c0.735,0,1.436-0.159,2.1-0.479s1.248-0.752,1.752-1.296
		s0.9-1.177,1.188-1.896s0.432-1.488,0.432-2.304c0-0.8-0.144-1.561-0.432-2.28s-0.681-1.352-1.176-1.896
		c-0.497-0.544-1.077-0.976-1.74-1.296c-0.664-0.32-1.364-0.48-2.101-0.48c-0.735,0-1.436,0.16-2.1,0.48
		c-0.664,0.32-1.244,0.756-1.74,1.308c-0.496,0.552-0.888,1.192-1.176,1.92C122.334,21.676,122.19,22.447,122.19,23.264z"/>
	<path fill="#FFFFFF" d="M146.357,29.407h-0.48v-6.936c0-1.824-0.252-3.152-0.756-3.984s-1.316-1.248-2.436-1.248
		c-0.608,0-1.204,0.108-1.788,0.324c-0.584,0.216-1.124,0.516-1.62,0.9c-0.496,0.384-0.928,0.839-1.296,1.368
		s-0.641,1.097-0.816,1.704v7.872h-0.479V16.951h0.479v3.216c0.256-0.495,0.584-0.956,0.984-1.38c0.399-0.424,0.84-0.784,1.32-1.08
		c0.479-0.296,0.991-0.528,1.535-0.696s1.097-0.252,1.656-0.252c1.28,0,2.216,0.46,2.809,1.38c0.592,0.92,0.888,2.364,0.888,4.333
		V29.407z"/>
</g>
<polygon fill="#FFDD33" points="118.401,7.87 119.644,10.387 122.421,10.791 120.411,12.75 120.885,15.517 118.401,14.211 
	115.916,15.517 116.391,12.75 114.38,10.791 117.159,10.387 "/>
</svg>
