<?xml version="1.0" encoding="utf-8"?>
<!-- Generator: Adobe Illustrator 15.1.0, SVG Export Plug-In . SVG Version: 6.00 Build 0)  -->
<svg version="1.2" baseProfile="tiny" id="Layer_1" xmlns="http://www.w3.org/2000/svg" xmlns:xlink="http://www.w3.org/1999/xlink"
	 x="0px" y="0px" width="160px" height="40px" viewBox="0 0 160 40" overflow="inherit" xml:space="preserve">
<g>
	<path fill="#FFDD33" d="M9.671,22.543c0-0.831,0.164-1.647,0.492-2.447c0.328-0.801,0.8-1.516,1.416-2.148
		c0.616-0.632,1.372-1.144,2.268-1.536c0.896-0.392,1.92-0.588,3.072-0.588c1.36,0,2.536,0.268,3.528,0.804
		c0.992,0.536,1.72,1.252,2.184,2.148l-2.64,1.872c-0.16-0.336-0.36-0.62-0.6-0.853c-0.24-0.231-0.504-0.412-0.792-0.539
		c-0.288-0.129-0.584-0.221-0.888-0.277c-0.304-0.056-0.592-0.084-0.864-0.084c-0.624,0-1.168,0.113-1.632,0.336
		s-0.844,0.512-1.14,0.864c-0.296,0.352-0.521,0.752-0.672,1.199c-0.152,0.448-0.228,0.896-0.228,1.345
		c0,0.512,0.088,0.995,0.264,1.451c0.176,0.456,0.424,0.86,0.744,1.213c0.32,0.352,0.708,0.632,1.164,0.84s0.972,0.312,1.548,0.312
		c0.288,0,0.584-0.031,0.888-0.096c0.304-0.063,0.596-0.164,0.876-0.3c0.28-0.136,0.536-0.316,0.768-0.54
		c0.231-0.225,0.42-0.496,0.564-0.816l2.832,1.68c-0.225,0.513-0.552,0.96-0.984,1.345c-0.432,0.384-0.924,0.712-1.476,0.983
		c-0.552,0.272-1.136,0.477-1.752,0.612s-1.22,0.204-1.812,0.204c-1.056,0-2.02-0.2-2.892-0.601
		c-0.873-0.399-1.62-0.932-2.244-1.596s-1.112-1.412-1.464-2.244C9.847,24.256,9.671,23.407,9.671,22.543z"/>
	<path fill="#FFDD33" d="M31.127,29.527c-1.072,0-2.048-0.196-2.928-0.588c-0.88-0.393-1.636-0.908-2.268-1.548
		c-0.632-0.64-1.12-1.376-1.464-2.208c-0.344-0.832-0.516-1.681-0.516-2.544c0-0.896,0.18-1.756,0.54-2.58s0.86-1.548,1.5-2.172
		c0.64-0.624,1.404-1.124,2.292-1.5c0.888-0.375,1.852-0.564,2.892-0.564c1.072,0,2.048,0.196,2.928,0.588
		c0.879,0.393,1.632,0.912,2.256,1.56s1.108,1.384,1.452,2.208c0.344,0.824,0.516,1.668,0.516,2.531c0,0.881-0.18,1.732-0.54,2.557
		c-0.36,0.824-0.856,1.552-1.488,2.184c-0.632,0.632-1.388,1.137-2.268,1.512C33.151,29.339,32.183,29.527,31.127,29.527z
		 M27.455,22.663c0,0.48,0.08,0.948,0.24,1.404c0.16,0.456,0.396,0.86,0.708,1.212c0.312,0.353,0.696,0.636,1.152,0.852
		c0.456,0.217,0.988,0.324,1.596,0.324c0.608,0,1.144-0.111,1.608-0.336c0.464-0.224,0.848-0.516,1.152-0.876
		c0.304-0.36,0.532-0.768,0.684-1.224c0.152-0.456,0.228-0.916,0.228-1.38c0-0.48-0.084-0.948-0.252-1.404s-0.408-0.855-0.72-1.2
		c-0.312-0.344-0.696-0.62-1.152-0.828c-0.456-0.208-0.98-0.312-1.572-0.312c-0.608,0-1.14,0.109-1.596,0.324
		c-0.456,0.217-0.84,0.501-1.152,0.853c-0.312,0.353-0.544,0.756-0.696,1.212S27.455,22.199,27.455,22.663z"/>
	<path fill="#FFDD33" d="M43.919,22.279v7.128h-3.456V15.895h2.712l7.08,7.344v-7.344h3.432v13.512h-2.76L43.919,22.279z"/>
	<path fill="#FFFFFF" d="M60.911,29.647c-0.96,0-1.856-0.16-2.688-0.48c-0.832-0.319-1.568-0.815-2.208-1.487l0.456-0.553
		c0.672,0.608,1.36,1.064,2.064,1.368c0.704,0.305,1.488,0.456,2.352,0.456c1.168,0,2.112-0.248,2.832-0.744
		c0.72-0.495,1.08-1.191,1.08-2.088c0-0.416-0.092-0.764-0.276-1.044c-0.184-0.279-0.453-0.52-0.804-0.72
		c-0.352-0.2-0.788-0.376-1.308-0.528c-0.52-0.151-1.116-0.308-1.788-0.468c-0.688-0.16-1.284-0.315-1.788-0.468
		c-0.504-0.152-0.924-0.332-1.26-0.54s-0.584-0.472-0.744-0.792c-0.16-0.32-0.24-0.729-0.24-1.225c0-0.624,0.12-1.159,0.36-1.608
		c0.24-0.448,0.564-0.819,0.972-1.116c0.408-0.296,0.88-0.516,1.416-0.66c0.536-0.144,1.108-0.216,1.716-0.216
		c1.008,0,1.876,0.168,2.604,0.504s1.26,0.76,1.596,1.272l-0.552,0.408c-0.352-0.48-0.868-0.848-1.548-1.104
		c-0.68-0.256-1.404-0.384-2.172-0.384c-0.496,0-0.96,0.052-1.392,0.156s-0.812,0.272-1.14,0.504
		c-0.328,0.232-0.588,0.524-0.78,0.876s-0.288,0.768-0.288,1.248c0,0.385,0.064,0.705,0.192,0.96
		c0.128,0.257,0.332,0.469,0.612,0.637c0.28,0.168,0.632,0.312,1.056,0.432s0.94,0.252,1.548,0.396
		c0.768,0.176,1.448,0.352,2.04,0.527c0.592,0.177,1.096,0.384,1.512,0.624s0.732,0.536,0.948,0.889
		c0.216,0.352,0.324,0.8,0.324,1.344c0,0.56-0.112,1.06-0.336,1.5c-0.224,0.44-0.54,0.82-0.948,1.14
		c-0.408,0.32-0.904,0.564-1.488,0.732S61.615,29.647,60.911,29.647z"/>
	<path fill="#FFFFFF" d="M73.775,28.831c-0.032,0.017-0.116,0.061-0.252,0.132c-0.136,0.072-0.312,0.152-0.528,0.24
		s-0.464,0.164-0.744,0.229c-0.28,0.063-0.588,0.096-0.924,0.096c-0.304,0-0.596-0.048-0.876-0.145
		c-0.28-0.096-0.524-0.231-0.732-0.407c-0.208-0.176-0.376-0.393-0.504-0.648c-0.128-0.256-0.192-0.544-0.192-0.864v-9.815h-1.776
		v-0.72h1.776v-4.296h0.816v4.296h2.976v0.72h-2.976v9.695c0.032,0.465,0.208,0.816,0.528,1.057c0.32,0.24,0.688,0.359,1.104,0.359
		c0.256,0,0.5-0.027,0.732-0.084c0.232-0.056,0.44-0.119,0.624-0.191c0.184-0.072,0.328-0.14,0.432-0.204
		c0.104-0.063,0.171-0.104,0.204-0.12L73.775,28.831z"/>
	<path fill="#FFFFFF" d="M81.095,29.647c-0.848,0-1.64-0.172-2.376-0.517c-0.736-0.344-1.38-0.815-1.932-1.416
		c-0.552-0.6-0.984-1.296-1.296-2.088s-0.468-1.636-0.468-2.531c0-0.88,0.152-1.704,0.456-2.473
		c0.304-0.768,0.728-1.439,1.272-2.016c0.543-0.576,1.176-1.032,1.896-1.368c0.72-0.336,1.503-0.504,2.352-0.504
		c0.848,0,1.64,0.168,2.376,0.504s1.376,0.796,1.92,1.38c0.543,0.584,0.977,1.269,1.297,2.052c0.318,0.784,0.479,1.616,0.479,2.496
		c0,0.032-0.004,0.097-0.012,0.192s-0.012,0.152-0.012,0.168H75.863c0.048,0.768,0.224,1.484,0.528,2.147
		c0.304,0.664,0.691,1.236,1.164,1.717c0.472,0.479,1.012,0.86,1.62,1.14c0.608,0.28,1.256,0.42,1.944,0.42
		c0.463,0,0.916-0.06,1.355-0.18s0.852-0.292,1.236-0.517c0.384-0.224,0.72-0.491,1.008-0.804c0.289-0.312,0.52-0.651,0.695-1.02
		l0.744,0.191c-0.176,0.433-0.436,0.837-0.779,1.212c-0.344,0.376-0.74,0.696-1.188,0.96c-0.449,0.265-0.937,0.473-1.465,0.624
		C82.199,29.571,81.654,29.647,81.095,29.647z M86.254,22.831c-0.047-0.783-0.215-1.504-0.504-2.16
		c-0.287-0.655-0.668-1.224-1.139-1.704c-0.473-0.48-1.013-0.852-1.621-1.116c-0.607-0.264-1.264-0.396-1.967-0.396
		c-0.705,0-1.361,0.136-1.969,0.408s-1.144,0.648-1.608,1.128c-0.464,0.48-0.836,1.048-1.116,1.704
		c-0.28,0.656-0.444,1.368-0.492,2.136H86.254z"/>
	<path fill="#FFFFFF" d="M89.927,11.887h0.792v15.384c0,0.464,0.144,0.832,0.432,1.104c0.288,0.272,0.664,0.408,1.128,0.408
		c0.177,0,0.388-0.02,0.637-0.06c0.247-0.04,0.476-0.101,0.684-0.181l0.192,0.672c-0.24,0.081-0.54,0.152-0.9,0.217
		c-0.36,0.063-0.668,0.096-0.924,0.096c-0.608,0-1.101-0.188-1.477-0.564c-0.376-0.375-0.563-0.884-0.563-1.523V11.887z"/>
	<path fill="#FFFFFF" d="M95.591,11.887h0.792v15.384c0,0.464,0.144,0.832,0.432,1.104c0.288,0.272,0.664,0.408,1.128,0.408
		c0.177,0,0.388-0.02,0.637-0.06c0.247-0.04,0.476-0.101,0.684-0.181l0.192,0.672c-0.24,0.081-0.54,0.152-0.9,0.217
		c-0.36,0.063-0.668,0.096-0.924,0.096c-0.608,0-1.101-0.188-1.477-0.564c-0.376-0.375-0.563-0.884-0.563-1.523V11.887z"/>
	<path fill="#FFFFFF" d="M104.159,29.647c-0.576,0-1.112-0.101-1.608-0.3c-0.496-0.2-0.928-0.473-1.296-0.816
		s-0.656-0.748-0.864-1.212s-0.312-0.968-0.312-1.512c0-0.528,0.128-1.012,0.384-1.452s0.612-0.82,1.068-1.141
		c0.456-0.319,0.999-0.567,1.632-0.743c0.632-0.177,1.332-0.265,2.1-0.265c0.688,0,1.393,0.057,2.112,0.168
		c0.72,0.112,1.359,0.28,1.92,0.504v-1.344c0-1.248-0.356-2.244-1.068-2.988c-0.712-0.744-1.668-1.116-2.868-1.116
		c-0.607,0-1.252,0.132-1.932,0.396s-1.372,0.645-2.076,1.14l-0.384-0.6c1.616-1.088,3.096-1.632,4.44-1.632
		c1.455,0,2.604,0.432,3.443,1.296c0.84,0.864,1.261,2.048,1.261,3.552v6.528c0,0.352,0.144,0.528,0.432,0.528v0.768
		c-0.048,0.016-0.112,0.024-0.192,0.024c-0.272,0-0.508-0.101-0.708-0.301c-0.2-0.199-0.3-0.443-0.3-0.731v-1.104
		c-0.561,0.753-1.3,1.332-2.22,1.74C106.202,29.443,105.215,29.647,104.159,29.647z M104.279,28.951c1.008,0,1.928-0.188,2.76-0.563
		c0.831-0.376,1.455-0.885,1.872-1.524c0.256-0.336,0.384-0.656,0.384-0.96v-2.353c-1.232-0.479-2.561-0.72-3.984-0.72
		c-1.328,0-2.396,0.269-3.204,0.804c-0.808,0.537-1.212,1.253-1.212,2.148c0,0.448,0.088,0.864,0.265,1.248
		c0.176,0.384,0.411,0.72,0.708,1.008c0.296,0.288,0.651,0.513,1.067,0.672C103.351,28.871,103.799,28.951,104.279,28.951z"/>
	<path fill="#FFFFFF" d="M119.015,28.831c-0.032,0.017-0.116,0.061-0.252,0.132c-0.136,0.072-0.312,0.152-0.527,0.24
		c-0.217,0.088-0.465,0.164-0.744,0.229c-0.28,0.063-0.588,0.096-0.925,0.096c-0.304,0-0.596-0.048-0.876-0.145
		c-0.279-0.096-0.523-0.231-0.731-0.407s-0.376-0.393-0.504-0.648c-0.129-0.256-0.192-0.544-0.192-0.864v-9.815h-1.775v-0.72h1.775
		v-4.296h0.816v4.296h2.976v0.72h-2.976v9.695c0.031,0.465,0.207,0.816,0.527,1.057s0.688,0.359,1.104,0.359
		c0.256,0,0.5-0.027,0.731-0.084c0.232-0.056,0.44-0.119,0.624-0.191c0.185-0.072,0.328-0.14,0.433-0.204
		c0.104-0.063,0.172-0.104,0.204-0.12L119.015,28.831z"/>
	<path fill="#FFFFFF" d="M121.103,13.903v-2.016h0.816v2.016H121.103z M121.103,29.407v-12.48h0.816v12.48H121.103z"/>
	<path fill="#FFFFFF" d="M130.918,29.647c-0.849,0-1.636-0.172-2.364-0.517c-0.729-0.344-1.364-0.808-1.908-1.392
		s-0.968-1.268-1.271-2.052c-0.305-0.784-0.456-1.608-0.456-2.473c0-0.879,0.156-1.712,0.468-2.496
		c0.312-0.783,0.74-1.471,1.284-2.063c0.544-0.592,1.18-1.06,1.908-1.404c0.728-0.344,1.508-0.516,2.34-0.516
		s1.616,0.172,2.352,0.516c0.736,0.344,1.376,0.812,1.92,1.404c0.544,0.593,0.973,1.28,1.284,2.063
		c0.312,0.784,0.468,1.617,0.468,2.496c0,0.864-0.155,1.688-0.468,2.473c-0.312,0.784-0.74,1.468-1.284,2.052
		s-1.184,1.048-1.92,1.392C132.534,29.476,131.75,29.647,130.918,29.647z M125.734,23.239c0,0.768,0.136,1.496,0.407,2.184
		c0.272,0.688,0.64,1.288,1.104,1.801c0.464,0.512,1.012,0.916,1.644,1.212s1.3,0.443,2.004,0.443s1.372-0.151,2.004-0.456
		c0.632-0.304,1.185-0.711,1.656-1.224c0.472-0.512,0.848-1.116,1.128-1.812c0.28-0.696,0.42-1.429,0.42-2.196
		c0-0.769-0.14-1.5-0.42-2.196s-0.656-1.3-1.128-1.812c-0.472-0.512-1.02-0.92-1.644-1.225c-0.624-0.304-1.288-0.456-1.992-0.456
		s-1.368,0.152-1.992,0.456c-0.624,0.304-1.172,0.716-1.644,1.236c-0.473,0.521-0.849,1.128-1.128,1.824
		C125.874,21.715,125.734,22.455,125.734,23.239z"/>
	<path fill="#FFFFFF" d="M149.83,29.407h-0.816v-6.96c0-1.712-0.239-2.964-0.72-3.756c-0.479-0.792-1.248-1.188-2.304-1.188
		c-0.576,0-1.141,0.104-1.692,0.312s-1.064,0.496-1.536,0.864s-0.888,0.8-1.248,1.296c-0.359,0.496-0.62,1.04-0.779,1.632v7.8
		h-0.816v-12.48h0.769v3.12c0.255-0.495,0.579-0.947,0.972-1.355c0.392-0.408,0.828-0.756,1.308-1.044
		c0.48-0.288,0.988-0.512,1.524-0.672c0.536-0.16,1.084-0.24,1.644-0.24c1.312,0,2.256,0.468,2.832,1.404s0.864,2.34,0.864,4.212
		V29.407z"/>
</g>
<polygon fill="#FFDD33" points="121.401,7.87 122.644,10.387 125.421,10.791 123.411,12.75 123.885,15.517 121.401,14.211 
	118.916,15.517 119.391,12.75 117.38,10.791 120.159,10.387 "/>
</svg>
